<svg width="384" height="114" viewBox="0 0 384 114" fill="none" xmlns="http://www.w3.org/2000/svg">
<rect width="384" height="114" fill="white"/>
<g clip-path="url(#clip0_3806_328)">
<mask id="mask0_3806_328" style="mask-type:luminance" maskUnits="userSpaceOnUse" x="8" y="8" width="64" height="98">
<path d="M72 8H8V106H72V8Z" fill="white"/>
</mask>
<g mask="url(#mask0_3806_328)">
<path fill-rule="evenodd" clip-rule="evenodd" d="M38.6472 8.06883C25.6823 9.34602 25.2257 28.5388 38.1092 30.6866C38.6929 30.7839 38.8779 30.835 38.8913 30.9027C38.901 30.9515 38.854 31.9193 38.7871 33.0534C38.7201 34.1875 38.6357 36.4175 38.5996 38.0088C38.5635 39.6002 38.5212 40.9115 38.5056 40.9229C38.4901 40.9342 38.2795 41.0406 38.0377 41.1594C37.5848 41.382 36.9891 41.8707 36.7496 42.2163C36.6153 42.4102 36.6153 42.4102 35.7906 42.4371C34.4884 42.4797 33.6947 42.798 32.974 43.5665C32.7742 43.7796 32.5913 43.9307 32.567 43.9025C32.5427 43.8744 31.7913 42.7678 30.8971 41.4434C30.003 40.119 28.9877 38.6276 28.641 38.1293L28.0106 37.2231L28.3805 36.8133C35.2791 29.1701 25.6328 17.6585 17.4302 23.7454C9.26539 29.8042 16.5832 42.5133 25.9709 38.5784C26.0095 38.5622 26.7069 39.4342 27.6204 40.6409C28.4908 41.7907 29.578 43.2083 30.0364 43.7911C30.4948 44.374 30.9085 44.9092 30.9558 44.9806C31.053 45.1271 31.0843 45.1058 30.5592 45.25C29.1032 45.6499 27.7305 46.8583 27.4584 47.9797C27.4227 48.127 27.3641 48.2482 27.3283 48.2492C24.8679 48.3145 22.985 50.1418 22.9584 52.4902C22.9494 53.289 22.9494 53.289 22.6143 53.4879C19.5647 55.2978 15.4273 61.3695 15.1319 64.4687C15.0883 64.9268 15.1055 64.9117 14.502 65.0147C13.1403 65.2471 12.3448 65.7388 11.506 66.8661C10.4438 68.2941 10.3458 69.5216 11.1558 71.2548C11.4301 71.8422 11.4452 71.7381 10.9929 72.3754C6.21066 79.1116 7.20691 87.0166 13.6409 93.3854C17.8489 97.5507 23.7558 100.09 30.3782 100.58C32.9068 100.767 33.1963 100.863 33.8476 101.72C38.13 107.36 41.8264 107.36 46.1088 101.72C46.7601 100.863 47.0496 100.767 49.5782 100.58C59.4767 99.8478 67.7584 94.422 70.8627 86.6352C72.8416 81.6719 72.2135 76.9595 68.962 72.3709C68.5111 71.7342 68.5264 71.8411 68.8006 71.2548C69.6105 69.5216 69.5125 68.2941 68.4505 66.8661C67.6117 65.7388 66.816 65.2471 65.4544 65.0147C64.8507 64.9117 64.8682 64.9268 64.8246 64.4687C64.7278 63.4525 63.6398 60.8445 62.6019 59.1397C61.3263 57.0446 58.8481 54.3817 57.3421 53.4879C57.007 53.289 57.007 53.289 56.9979 52.4902C56.9714 50.1418 55.0885 48.3145 52.6281 48.2492C52.5923 48.2482 52.5337 48.127 52.498 47.9797C52.2259 46.8583 50.8532 45.6499 49.3972 45.25C48.8721 45.1058 48.9034 45.1271 49.0006 44.9806C49.0478 44.9092 49.4616 44.374 49.92 43.7911C50.3784 43.2083 51.4656 41.7907 52.336 40.6409C53.2495 39.4342 53.9469 38.5622 53.9855 38.5784C63.3732 42.5133 70.6911 29.8042 62.5262 23.7454C54.3235 17.6585 44.6773 29.1701 51.5758 36.8133L51.9458 37.2231L51.3154 38.1293C50.9687 38.6276 49.9534 40.119 49.0593 41.4434C48.1651 42.7678 47.4137 43.8744 47.3894 43.9025C47.3651 43.9307 47.1822 43.7796 46.9823 43.5665C46.2617 42.798 45.468 42.4797 44.1658 42.4371C43.3411 42.4102 43.3411 42.4102 43.2087 42.219C42.8617 41.7184 42.0622 41.1498 41.4155 40.9436C41.1253 40.8511 41.1253 40.8511 41.1323 37.4513C41.1361 35.5813 41.1265 33.3231 41.1109 32.433L41.0826 30.8145L41.8472 30.6868C56.3373 28.2667 53.2758 6.62778 38.6472 8.06883ZM38.291 10.8701C33.3199 11.7681 30.0529 16.3644 30.9446 20.8628C31.0089 21.1872 31.0948 21.5111 31.2033 21.8331C33.8009 29.5419 46.1555 29.5419 48.753 21.8331C48.8628 21.5076 48.9495 21.1818 49.0144 20.8569C50.1526 15.1595 44.5778 9.73452 38.291 10.8701ZM21.5994 24.9817C17.9282 25.6605 15.7554 29.3854 16.6607 32.544C16.8348 33.1512 17.1226 33.7375 17.5354 34.2772C20.4561 38.0955 25.7152 37.7103 27.882 33.5194C28.0717 33.1526 28.2166 32.7789 28.3202 32.403C29.415 28.427 25.8778 24.1907 21.5994 24.9817ZM56.3834 24.9849C52.7211 25.6391 50.8231 29.2129 51.6409 32.3975C51.9142 33.4617 52.4909 34.4826 53.4063 35.3364C56.0396 37.7926 60.0966 37.3159 62.421 34.2772C62.8342 33.7369 63.1207 33.1588 63.2948 32.5648C64.4238 28.7128 60.8241 24.1916 56.3834 24.9849ZM39.362 42.7628C37.5698 43.079 36.991 44.7375 37.9445 46.8251C38.2284 47.4467 38.2284 47.4467 38.6642 47.4512C39.0555 47.4553 39.1446 47.4783 39.539 47.6775C39.9782 47.8994 39.9782 47.8994 40.4174 47.6775C40.8118 47.4783 40.9009 47.4553 41.2922 47.4512C41.7279 47.4467 41.7279 47.4467 42.0116 46.8251C43.1813 44.2617 41.9104 42.3133 39.362 42.7628ZM34.7648 44.4037C33.2964 44.7952 32.8728 46.5768 33.8042 48.4434C34.1898 49.2162 34.1134 49.1555 34.5802 49.0593C34.8826 48.9969 35.0496 48.9903 35.2569 49.0326C35.9375 49.1712 35.8541 49.1937 36.1426 48.7939C36.286 48.5952 36.5245 48.3316 36.6726 48.208C36.9419 47.9832 36.9419 47.9832 36.7642 47.7093C36.2795 46.9621 36.0755 46.2445 36.0296 45.1254C35.9951 44.2828 35.7476 44.1416 34.7648 44.4037ZM43.927 45.1186C43.8809 46.245 43.678 46.9605 43.1922 47.7093C43.0145 47.9832 43.0145 47.9832 43.2838 48.208C43.4319 48.3316 43.6704 48.5952 43.8138 48.7939C44.1023 49.1937 44.0189 49.1712 44.6995 49.0326C44.9068 48.9903 45.0738 48.9969 45.3762 49.0593C45.843 49.1555 45.7666 49.2162 46.1522 48.4434C47.2408 46.2617 46.529 44.4184 44.5671 44.3385L43.96 44.3138L43.927 45.1186ZM30.7463 46.5994C28.5518 47.1672 27.7719 49.7939 29.2551 51.6214C29.6086 52.057 29.5848 52.0495 29.9384 51.8382C30.4878 51.51 31.1071 51.4044 31.8293 51.5158C32.091 51.5561 32.091 51.5561 32.1573 51.2958C32.2687 50.8583 32.5964 50.2875 32.9521 49.9116C33.2903 49.5542 33.2903 49.5542 33.0599 49.2509C32.5571 48.5895 32.11 47.3252 32.1059 46.5534C32.1055 46.4803 31.0712 46.5153 30.7463 46.5994ZM47.8505 46.5534C47.8463 47.3252 47.3993 48.5895 46.8965 49.2509C46.6661 49.5542 46.6661 49.5542 47.0043 49.9116C47.3599 50.2875 47.6877 50.8583 47.7991 51.2958C47.8654 51.5561 47.8654 51.5561 48.1271 51.5158C48.8493 51.4044 49.4686 51.51 50.018 51.8382C50.3716 52.0495 50.3478 52.057 50.7013 51.6214C51.9374 50.0984 51.5689 47.6714 49.9853 46.905C49.3053 46.5759 47.8517 46.3365 47.8505 46.5534ZM37.7823 49.226C36.2407 49.9355 36.1008 51.6657 37.425 53.6435C37.8322 54.2516 37.8322 54.2516 37.9909 54.0042C38.8347 52.6887 41.1217 52.6887 41.9655 54.0042C42.195 54.362 43.119 52.998 43.3537 51.9547C43.7727 50.0926 41.9355 48.1987 40.8969 49.4221C40.676 49.6824 40.4046 50.1603 40.2974 50.4778C40.0898 51.0928 39.8666 51.0928 39.659 50.4778C39.493 49.9861 39.1431 49.4559 38.8236 49.2121C38.5965 49.0388 38.1769 49.0444 37.7823 49.226ZM26.8384 49.6039C24.0378 49.9677 23.5262 53.9479 26.0611 55.65C26.6008 56.0123 28.141 56.6513 28.141 56.5128C28.141 56.5043 28.0901 56.3003 28.0278 56.0594C27.7621 55.0324 28.0395 53.7398 28.6993 52.9304C28.8762 52.7134 28.8762 52.7134 28.432 52.2494C27.7738 51.5619 27.4175 50.8228 27.3193 49.9413C27.273 49.5255 27.2993 49.5439 26.8384 49.6039ZM52.6912 49.6143C52.6802 49.6479 52.6441 49.8579 52.611 50.081C52.4797 50.9651 52.1639 51.5892 51.5006 52.2757C51.079 52.7119 51.079 52.7119 51.2565 52.9297C51.9169 53.7398 52.1944 55.032 51.9286 56.0594C51.8663 56.3003 51.8154 56.5043 51.8154 56.5128C51.8154 56.6513 53.3556 56.0123 53.8953 55.65C56.1411 54.142 56.1021 50.8592 53.826 49.8098C53.4506 49.6368 52.7246 49.5117 52.6912 49.6143ZM34.5751 50.3259C32.7937 50.5794 32.4305 53.4707 33.9361 55.4129C34.0663 55.5809 34.1901 55.7431 34.2111 55.7734C34.2338 55.806 34.3376 55.7683 34.466 55.6807C35.1916 55.1858 36.0696 55.0783 37.3958 55.322C37.4398 55.3301 37.6801 54.7384 37.6417 54.7164C36.1995 53.8924 35.3765 52.4298 35.4595 50.8381C35.4835 50.3767 35.4835 50.3767 35.2813 50.3432C35.1701 50.3247 35.0408 50.3026 34.9941 50.294C34.9474 50.2854 34.7589 50.2998 34.5751 50.3259ZM44.9339 50.2951C44.9028 50.3034 44.7863 50.3252 44.6751 50.3435C44.4729 50.3767 44.4729 50.3767 44.4969 50.8381C44.5799 52.4298 43.7569 53.8924 42.3146 54.7164C42.2762 54.7384 42.5166 55.3301 42.5606 55.322C43.8868 55.0783 44.7648 55.1858 45.4904 55.6807C45.6188 55.7683 45.7226 55.806 45.7453 55.7734C45.7663 55.7431 45.89 55.5809 46.0203 55.4129C47.1269 53.9854 47.2616 51.5659 46.2819 50.7133C45.9788 50.4495 45.2274 50.2164 44.9339 50.2951ZM30.9617 52.6378C28.7785 53.2189 28.6256 56.202 30.6811 58.1117C32.1667 59.492 30.7158 59.1684 29.0976 57.7586C28.6589 57.3763 28.6589 57.3763 28.3245 57.4109C26.9589 57.552 24.8553 56.358 23.7336 54.8051C23.4748 54.4467 23.4748 54.4467 23.3102 54.6371C20.9781 57.3326 19.6508 59.7462 18.1393 64.0392C17.7652 65.1021 17.7615 65.0192 18.187 65.0993C25.4495 66.4623 30.2416 74.113 30.3909 84.5834C30.4234 86.8698 30.3657 86.7326 31.1701 86.4353C31.6613 86.2533 31.7608 86.115 32.1621 85.0582C33.9984 80.221 35.5444 78.303 38.1344 77.6483C38.6704 77.5128 38.6547 77.5229 38.7005 77.2815C38.804 76.7361 39.3863 75.3081 39.5961 75.0852C40.1021 74.5482 40.9502 75.6704 41.2559 77.2815C41.3017 77.5229 41.286 77.5128 41.822 77.6483C44.412 78.303 45.9579 80.221 47.7943 85.0582C48.1956 86.115 48.2951 86.2533 48.7863 86.4353C49.5907 86.7326 49.5329 86.8698 49.5655 84.5834C49.7148 74.1125 54.5064 66.4623 61.7693 65.0993C62.1949 65.0192 62.1912 65.1021 61.8171 64.0392C60.3056 59.7462 58.9783 57.3326 56.6462 54.6371C56.4816 54.4467 56.4816 54.4467 56.2228 54.8051C55.1011 56.358 52.9975 57.552 51.6319 57.4109C51.2975 57.3763 51.2975 57.3763 50.8588 57.7586C49.2406 59.1684 47.7897 59.492 49.2753 58.1117C50.7584 56.7338 51.1328 55.311 50.3929 53.8642C49.8067 52.7177 47.9983 52.0306 47.8834 52.9107C47.6997 54.3185 47.1368 55.4015 46.289 55.9783C46.0421 56.1463 46.0421 56.1463 46.2526 56.5228C46.7369 57.3892 46.4976 58.5152 45.6489 59.3635C44.9308 60.0812 44.3539 60.1282 45.0128 59.4153C45.8772 58.4802 45.8171 57.3403 44.889 57.0678C44.3338 56.9047 42.5835 56.9739 42.5835 57.1589C42.5835 57.5796 42.0209 58.873 41.6869 59.2202C41.2726 59.6508 41.1858 59.4641 41.4711 58.756C42.3452 56.587 41.6167 54.5195 39.9782 54.5195C38.3397 54.5195 37.6112 56.587 38.4852 58.756C38.7706 59.4641 38.6838 59.6508 38.2695 59.2202C37.9355 58.873 37.3729 57.5796 37.3729 57.1589C37.3729 56.9739 35.6226 56.9047 35.0674 57.0678C34.1392 57.3403 34.0791 58.4802 34.9435 59.4153C35.6025 60.1282 35.0256 60.0812 34.3075 59.3635C33.4587 58.5152 33.2195 57.3892 33.7038 56.5228C33.9143 56.1463 33.9143 56.1463 33.6673 55.9783C32.8204 55.4022 32.2566 54.3182 32.0734 52.9142C32.0433 52.6834 32.0113 52.6186 31.9149 52.593C31.7159 52.5402 31.2453 52.5623 30.9617 52.6378ZM15.3494 66.501C12.0074 67.0257 12.51 70.6657 16.3457 73.7154C17.5633 74.6837 17.5854 74.6971 19.5322 75.6889C26.7089 79.3451 28.5941 81.5918 28.5941 86.4902C28.5941 86.8267 28.8359 86.9298 29.1747 86.7371C29.2357 86.7024 29.226 84.3594 29.1597 83.1072C28.8481 77.2272 26.4656 71.7308 23.0503 69.0137C20.7912 67.2161 17.5438 66.1566 15.3494 66.501ZM62.8879 66.4825C56.6903 67.1349 51.9779 72.9986 50.9392 81.3499C50.774 82.6794 50.6574 86.666 50.7817 86.7371C51.1205 86.9298 51.3623 86.8267 51.3623 86.4902C51.3623 81.5913 53.2462 79.3457 60.4242 75.6889C62.371 74.6971 62.3931 74.6837 63.6107 73.7154C68.2076 70.0609 67.7981 65.9656 62.8879 66.4825ZM12.9217 73.9652C10.3147 76.7753 9.54643 82.5791 11.2335 86.7192C13.6014 92.5309 21.3492 97.9338 28.1693 98.5302C31.26 98.8001 31.9616 98.7542 31.666 98.2989C31.1812 97.5535 29.5195 94.5301 28.5486 92.6272C28.2971 92.1344 27.9069 91.4417 27.6814 91.0872C26.6685 89.4962 26.5942 88.3398 27.4468 87.4388C27.9516 86.9051 27.6345 84.3812 26.8711 82.8546C26.4936 82.0998 26.5196 82.1076 26.1604 82.6452C22.0283 88.8293 13.598 84.0967 13.7689 75.6894C13.795 74.4065 13.795 74.4065 13.4373 74.1226C13.0199 73.7922 13.0687 73.8067 12.9217 73.9652ZM66.5068 74.1265C66.1613 74.4065 66.1613 74.4065 66.1873 75.6894C66.3584 84.0967 57.928 88.8287 53.796 82.6452C53.4368 82.1076 53.4628 82.0998 53.0853 82.8546C52.3219 84.3812 52.0048 86.9051 52.5096 87.4388C53.3622 88.3398 53.2879 89.4962 52.275 91.0872C52.0495 91.4417 51.6593 92.1344 51.4078 92.6272C50.4369 94.5301 48.7752 97.5535 48.2904 98.2989C47.9929 98.757 47.9097 98.7351 49.6502 98.6545C53.2799 98.487 54.7898 98.1555 57.7339 96.8798C68.3792 92.2688 72.708 82.4727 67.5432 74.682C66.9049 73.7188 66.9678 73.753 66.5068 74.1265ZM15.2026 75.4772C14.6536 77.2787 15.7403 80.674 17.423 82.4156C17.9455 82.956 17.9769 82.9594 17.7681 82.4526C16.9291 80.4142 17.2367 77.8863 18.4215 77.0838C18.6406 76.9354 18.2405 76.6862 16.7003 76.0131C16.3421 75.8563 15.8776 75.6435 15.6681 75.5399C15.2159 75.3159 15.2503 75.321 15.2026 75.4772ZM64.3605 75.503C64.2047 75.583 63.7205 75.8076 63.2844 76.0019C61.6014 76.7501 61.3089 76.931 61.534 77.0833C62.7197 77.8863 63.0276 80.413 62.1883 82.4526C61.9795 82.9594 62.0109 82.956 62.5334 82.4156C64.2161 80.674 65.3027 77.2787 64.7538 75.4772C64.7068 75.3232 64.7091 75.3232 64.3605 75.503ZM39.3078 78.9386C37.1406 79.3222 35.1122 81.6445 33.5392 85.5432C32.7506 87.4982 32.3404 87.781 29.7269 88.1741C28.007 88.4328 27.8936 88.8472 29.0756 90.5524C29.9302 91.7855 30.974 93.489 32.0765 95.449C34.0468 98.953 34.7738 100.115 35.7758 101.363C39.2315 105.669 42.1851 104.963 45.8492 98.9552C46.5707 97.7725 46.6608 97.6168 47.8799 95.449C48.9824 93.489 50.0262 91.7855 50.8808 90.5524C52.0628 88.8472 51.9494 88.4328 50.2295 88.1741C47.6159 87.781 47.2058 87.4982 46.4172 85.5432C44.5208 80.8431 41.9644 78.4682 39.3078 78.9386ZM33.55 88.2077C33.0207 88.4804 32.8298 89.004 33.0762 89.5074C33.2716 89.9062 33.8097 90.105 34.1408 89.9006C34.2319 89.8446 34.3007 89.8653 34.579 90.0338C35.574 90.6353 35.9533 90.5188 35.644 89.7062C35.172 88.4664 34.2826 87.8302 33.55 88.2077ZM45.4328 88.2329C44.8255 88.5381 44.0489 89.8423 44.2395 90.2377C44.3773 90.5233 44.6478 90.4751 45.3774 90.0338C45.6557 89.8653 45.7245 89.8446 45.8156 89.9006C46.1467 90.105 46.6848 89.9062 46.8802 89.5074C47.3022 88.6456 46.3245 87.7843 45.4328 88.2329Z" fill="#22110C"/>
<path d="M44.934 50.2951C44.9028 50.3034 44.7863 50.3252 44.6751 50.3435C44.4729 50.3767 44.4729 50.3767 44.4969 50.8381C44.5799 52.4298 43.7569 53.8924 42.3147 54.7164C42.2763 54.7384 42.5166 55.3301 42.5606 55.322C43.8868 55.0783 44.7648 55.1858 45.4904 55.6807C45.6188 55.7683 45.7226 55.806 45.7453 55.7734C45.7663 55.7431 45.89 55.5809 46.0203 55.4129C47.1269 53.9854 47.2616 51.5659 46.2819 50.7133C45.9789 50.4495 45.2274 50.2164 44.934 50.2951Z" fill="#2430F0"/>
<path d="M52.6912 49.6143C52.6802 49.6479 52.6441 49.8579 52.611 50.081C52.4797 50.9651 52.1639 51.5892 51.5006 52.2757C51.079 52.7119 51.079 52.7119 51.2565 52.9297C51.9168 53.7399 52.1944 55.0321 51.9286 56.0594C51.8663 56.3003 51.8154 56.5043 51.8154 56.5128C51.8154 56.6513 53.3555 56.0123 53.8952 55.65C56.1411 54.142 56.1021 50.8592 53.826 49.8098C53.4506 49.6368 52.7246 49.5117 52.6912 49.6143Z" fill="#2430F0"/>
<path d="M47.8505 46.5533C47.8464 47.3251 47.3993 48.5894 46.8965 49.2508C46.6661 49.5541 46.6661 49.5541 47.0043 49.9115C47.3599 50.2874 47.6877 50.8582 47.7991 51.2957C47.8654 51.556 47.8654 51.556 48.1271 51.5157C48.8493 51.4043 49.4686 51.5099 50.018 51.8381C50.3716 52.0494 50.3478 52.0569 50.7013 51.6213C51.9374 50.0983 51.5689 47.6713 49.9853 46.9049C49.3053 46.5758 47.8517 46.3364 47.8505 46.5533Z" fill="#2430F0"/>
<path d="M43.927 45.1186C43.8809 46.245 43.678 46.9605 43.1922 47.7093C43.0145 47.9832 43.0145 47.9832 43.2838 48.208C43.4319 48.3316 43.6704 48.5952 43.8138 48.7939C44.1023 49.1937 44.0189 49.1712 44.6995 49.0326C44.9068 48.9903 45.0738 48.9969 45.3762 49.0592C45.843 49.1555 45.7666 49.2162 46.1521 48.4434C47.2408 46.2617 46.529 44.4184 44.567 44.3384L43.96 44.3138L43.927 45.1186Z" fill="#2430F0"/>
<path d="M39.362 42.7627C37.5697 43.0789 36.991 44.7374 37.9445 46.825C38.2284 47.4466 38.2284 47.4466 38.6641 47.4511C39.0555 47.4551 39.1445 47.4782 39.539 47.6774C39.9782 47.8993 39.9782 47.8993 40.4174 47.6774C40.8118 47.4782 40.9009 47.4551 41.2922 47.4511C41.7279 47.4466 41.7279 47.4466 42.0116 46.825C43.1813 44.2616 41.9104 42.3132 39.362 42.7627Z" fill="#2430F0"/>
<path d="M37.7823 49.2259C36.2407 49.9355 36.1008 51.6656 37.425 53.6434C37.8322 54.2515 37.8322 54.2515 37.9909 54.0041C38.8347 52.6886 41.1217 52.6886 41.9655 54.0041C42.195 54.3619 43.119 52.9979 43.3537 51.9546C43.7727 50.0925 41.9355 48.1986 40.8969 49.422C40.676 49.6823 40.4046 50.1602 40.2974 50.4777C40.0898 51.0927 39.8666 51.0927 39.659 50.4777C39.493 49.986 39.1431 49.4558 38.8236 49.212C38.5965 49.0387 38.1768 49.0443 37.7823 49.2259Z" fill="#2430F0"/>
<path d="M34.5751 50.3259C32.7937 50.5794 32.4305 53.4707 33.9361 55.4129C34.0663 55.5809 34.1901 55.7431 34.2111 55.7734C34.2338 55.806 34.3376 55.7683 34.466 55.6807C35.1916 55.1858 36.0696 55.0783 37.3958 55.322C37.4398 55.3301 37.6801 54.7384 37.6417 54.7164C36.1995 53.8924 35.3765 52.4298 35.4594 50.8381C35.4835 50.3767 35.4835 50.3767 35.2813 50.3432C35.1701 50.3247 35.0408 50.3026 34.9941 50.294C34.9474 50.2854 34.7588 50.2998 34.5751 50.3259Z" fill="#2430F0"/>
<path d="M30.7463 46.5994C28.5518 47.1672 27.7719 49.7939 29.2551 51.6214C29.6086 52.057 29.5848 52.0495 29.9384 51.8382C30.4878 51.51 31.1071 51.4044 31.8293 51.5157C32.091 51.5561 32.091 51.5561 32.1573 51.2958C32.2687 50.8583 32.5964 50.2875 32.9521 49.9116C33.2902 49.5542 33.2902 49.5542 33.0598 49.2509C32.5571 48.5895 32.11 47.3252 32.1058 46.5534C32.1055 46.4803 31.0712 46.5153 30.7463 46.5994Z" fill="#2430F0"/>
<path d="M34.7648 44.4037C33.2964 44.7952 32.8728 46.5768 33.8042 48.4434C34.1898 49.2162 34.1134 49.1555 34.5802 49.0593C34.8826 48.9969 35.0496 48.9903 35.2569 49.0326C35.9375 49.1712 35.8541 49.1937 36.1426 48.7939C36.286 48.5952 36.5245 48.3316 36.6726 48.208C36.9419 47.9832 36.9419 47.9832 36.7642 47.7093C36.2795 46.9621 36.0755 46.2445 36.0296 45.1254C35.9951 44.2828 35.7476 44.1416 34.7648 44.4037Z" fill="#2430F0"/>
<path d="M26.8384 49.6039C24.0378 49.9678 23.5262 53.9479 26.0611 55.65C26.6008 56.0123 28.141 56.6513 28.141 56.5128C28.141 56.5043 28.0901 56.3003 28.0278 56.0594C27.7621 55.0324 28.0395 53.7398 28.6993 52.9304C28.8762 52.7134 28.8762 52.7134 28.432 52.2494C27.7739 51.5619 27.4175 50.8228 27.3193 49.9413C27.273 49.5255 27.2993 49.5439 26.8384 49.6039Z" fill="#2430F0"/>
<path d="M62.8879 66.4825C56.6904 67.1349 51.9779 72.9986 50.9393 81.3499C50.774 82.6794 50.6574 86.666 50.7817 86.7371C51.1205 86.9298 51.3623 86.8267 51.3623 86.4902C51.3623 81.5913 53.2463 79.3457 60.4242 75.6889C62.371 74.6971 62.3931 74.6837 63.6107 73.7154C68.2076 70.0609 67.7981 65.9656 62.8879 66.4825Z" fill="#2BE1B7"/>
<path d="M66.5068 74.1265C66.1613 74.4065 66.1613 74.4065 66.1873 75.6894C66.3584 84.0967 57.928 88.8287 53.796 82.6452C53.4368 82.1076 53.4628 82.0997 53.0853 82.8546C52.3219 84.3812 52.0048 86.9051 52.5096 87.4388C53.3622 88.3398 53.2879 89.4962 52.275 91.0872C52.0495 91.4417 51.6593 92.1344 51.4078 92.6272C50.4369 94.5301 48.7752 97.5535 48.2904 98.2989C47.9929 98.7569 47.9097 98.7351 49.6502 98.6545C53.2799 98.487 54.7898 98.1555 57.7339 96.8798C68.3792 92.2688 72.708 82.4727 67.5432 74.682C66.9049 73.7188 66.9678 73.753 66.5068 74.1265Z" fill="#2BE1B7"/>
<path d="M12.9217 73.9652C10.3147 76.7753 9.54644 82.5791 11.2335 86.7192C13.6014 92.5309 21.3492 97.9338 28.1694 98.5302C31.26 98.8001 31.9616 98.7542 31.666 98.2989C31.1812 97.5535 29.5195 94.5301 28.5486 92.6272C28.2971 92.1344 27.9069 91.4417 27.6814 91.0872C26.6685 89.4962 26.5942 88.3398 27.4468 87.4388C27.9516 86.9051 27.6345 84.3812 26.8711 82.8546C26.4936 82.0998 26.5196 82.1076 26.1604 82.6452C22.0284 88.8293 13.598 84.0967 13.7689 75.6894C13.795 74.4065 13.795 74.4065 13.4374 74.1226C13.0199 73.7922 13.0688 73.8067 12.9217 73.9652Z" fill="#2BE1B7"/>
<path d="M15.3494 66.5011C12.0074 67.0258 12.51 70.6658 16.3457 73.7155C17.5633 74.6838 17.5854 74.6972 19.5322 75.689C26.7089 79.3452 28.5941 81.5918 28.5941 86.4902C28.5941 86.8267 28.8359 86.9299 29.1747 86.7372C29.2357 86.7025 29.226 84.3595 29.1597 83.1073C28.8482 77.2273 26.4657 71.7309 23.0503 69.0138C20.7912 67.2162 17.5438 66.1567 15.3494 66.5011Z" fill="#2BE1B7"/>
<path d="M30.9617 52.6378C28.7785 53.2189 28.6256 56.202 30.6811 58.1117C32.1667 59.492 30.7157 59.1684 29.0976 57.7586C28.6589 57.3763 28.6589 57.3763 28.3245 57.4109C26.9589 57.552 24.8553 56.358 23.7336 54.8051C23.4748 54.4467 23.4748 54.4467 23.3102 54.6371C20.9781 57.3326 19.6508 59.7462 18.1393 64.0392C17.7652 65.1021 17.7614 65.0192 18.187 65.0993C25.4495 66.4623 30.2416 74.113 30.3909 84.5834C30.4234 86.8698 30.3657 86.7326 31.1701 86.4353C31.6612 86.2533 31.7608 86.115 32.1621 85.0582C33.9984 80.221 35.5443 78.303 38.1344 77.6483C38.6704 77.5128 38.6547 77.5229 38.7005 77.2815C38.804 76.7361 39.3863 75.3081 39.5961 75.0852C40.1021 74.5482 40.9502 75.6704 41.2559 77.2815C41.3017 77.5229 41.286 77.5128 41.822 77.6483C44.412 78.303 45.9579 80.221 47.7943 85.0582C48.1956 86.115 48.2951 86.2533 48.7863 86.4353C49.5907 86.7326 49.5329 86.8698 49.5655 84.5834C49.7148 74.1125 54.5064 66.4623 61.7693 65.0993C62.1949 65.0192 62.1912 65.1021 61.8171 64.0392C60.3056 59.7462 58.9783 57.3326 56.6462 54.6371C56.4816 54.4467 56.4816 54.4467 56.2227 54.8051C55.1011 56.358 52.9975 57.552 51.6319 57.4109C51.2975 57.3763 51.2975 57.3763 50.8588 57.7586C49.2406 59.1684 47.7896 59.492 49.2753 58.1117C50.7584 56.7338 51.1328 55.311 50.3929 53.8642C49.8067 52.7177 47.9983 52.0306 47.8834 52.9107C47.6997 54.3185 47.1368 55.4015 46.289 55.9783C46.0421 56.1463 46.0421 56.1463 46.2526 56.5228C46.7369 57.3892 46.4976 58.5153 45.6489 59.3635C44.9308 60.0812 44.3539 60.1282 45.0128 59.4153C45.8772 58.4802 45.8171 57.3403 44.889 57.0678C44.3338 56.9048 42.5835 56.9739 42.5835 57.1589C42.5835 57.5796 42.0209 58.873 41.6869 59.2202C41.2726 59.6508 41.1858 59.4641 41.4711 58.7561C42.3452 56.587 41.6166 54.5195 39.9782 54.5195C38.3397 54.5195 37.6112 56.587 38.4852 58.7561C38.7706 59.4641 38.6837 59.6508 38.2695 59.2202C37.9355 58.873 37.3729 57.5796 37.3729 57.1589C37.3729 56.9739 35.6226 56.9048 35.0674 57.0678C34.1392 57.3403 34.0791 58.4802 34.9435 59.4153C35.6025 60.1282 35.0256 60.0812 34.3075 59.3635C33.4587 58.5153 33.2195 57.3892 33.7038 56.5228C33.9143 56.1463 33.9143 56.1463 33.6673 55.9783C32.8204 55.4022 32.2566 54.3182 32.0734 52.9142C32.0433 52.6834 32.0113 52.6186 31.9149 52.593C31.7159 52.5402 31.2453 52.5623 30.9617 52.6378Z" fill="#2430F0"/>
<path fill-rule="evenodd" clip-rule="evenodd" d="M39.3078 78.9386C37.1406 79.3222 35.1122 81.6445 33.5392 85.5432C32.7505 87.4982 32.3404 87.781 29.7269 88.1741C28.007 88.4328 27.8936 88.8472 29.0756 90.5524C29.9302 91.7855 30.974 93.489 32.0765 95.449C34.0467 98.953 34.7738 100.115 35.7758 101.363C39.2315 105.669 42.1851 104.963 45.8492 98.9552C46.5707 97.7725 46.6608 97.6168 47.8799 95.449C48.9824 93.489 50.0262 91.7855 50.8808 90.5524C52.0627 88.8472 51.9494 88.4328 50.2295 88.1741C47.6159 87.781 47.2058 87.4982 46.4172 85.5432C44.5208 80.8431 41.9644 78.4682 39.3078 78.9386ZM33.0762 89.5074C32.8298 89.004 33.0207 88.4804 33.55 88.2077C34.2826 87.8302 35.172 88.4664 35.644 89.7062C35.9533 90.5188 35.574 90.6353 34.579 90.0338C34.3007 89.8653 34.2319 89.8446 34.1408 89.9006C33.8097 90.105 33.2716 89.9062 33.0762 89.5074ZM44.2395 90.2377C44.0489 89.8423 44.8255 88.5381 45.4327 88.2329C46.3245 87.7843 47.3022 88.6456 46.8802 89.5074C46.6848 89.9062 46.1467 90.105 45.8156 89.9006C45.7245 89.8446 45.6557 89.8653 45.3773 90.0338C44.6477 90.4751 44.3773 90.5233 44.2395 90.2377Z" fill="#F2C79C"/>
<path fill-rule="evenodd" clip-rule="evenodd" d="M28.3202 32.4031C27.5666 29.5955 25.2191 27.384 22.0295 27.9737C19.4987 28.4417 17.2498 30.3644 16.6608 32.5441C16.8348 33.1513 17.1226 33.7376 17.5355 34.2773C20.4561 38.0956 25.7152 37.7104 27.882 33.5195C28.0717 33.1527 28.2166 32.779 28.3202 32.4031Z" fill="#2430F0"/>
<path fill-rule="evenodd" clip-rule="evenodd" d="M31.2033 21.8331C31.0948 21.5111 31.0089 21.1872 30.9446 20.8628C31.6043 17.4875 34.8651 14.5586 38.7211 13.862C43.8819 12.9298 48.1328 16.4256 49.0144 20.8569C48.9495 21.1818 48.8628 21.5076 48.753 21.8331C46.1555 29.5419 33.8009 29.5419 31.2033 21.8331Z" fill="#2430F0"/>
<path d="M56.3834 24.9849C52.7211 25.6391 50.8231 29.2129 51.6409 32.3975C52.1819 30.2632 54.2959 28.4266 56.8135 27.9768C60.1137 27.3873 62.5193 29.74 63.2948 32.5648C64.4238 28.7128 60.8241 24.1916 56.3834 24.9849Z" fill="#2430F0"/>
<path d="M30.9446 20.8628C31.6043 17.4876 34.8651 14.5587 38.7211 13.8621C43.8819 12.9299 48.1328 16.4257 49.0144 20.8569C50.1526 15.1595 44.5778 9.73456 38.291 10.8702C33.3199 11.7681 30.0529 16.3645 30.9446 20.8628Z" fill="#2430F0"/>
<path d="M22.0295 27.9736C25.219 27.3839 27.5666 29.5954 28.3202 32.403C29.415 28.427 25.8778 24.1907 21.5994 24.9817C17.9281 25.6605 15.7554 29.3854 16.6607 32.544C17.2498 30.3643 19.4986 28.4416 22.0295 27.9736Z" fill="#2430F0"/>
<path d="M53.4063 35.3365C56.0396 37.7927 60.0966 37.316 62.421 34.2773C62.8342 33.737 63.1207 33.1589 63.2948 32.565C62.5193 29.7401 60.1137 27.3874 56.8135 27.9769C54.2959 28.4267 52.1819 30.2633 51.6409 32.3976C51.9142 33.4618 52.4909 34.4827 53.4063 35.3365Z" fill="#2430F0"/>
<path fill-rule="evenodd" clip-rule="evenodd" d="M32.3135 17.8218C33.7542 15.8435 36.1023 14.3361 38.7261 13.8621C42.6523 13.1529 46.052 15.0067 47.842 17.8854C48.1832 17.5459 48.4952 17.2008 48.753 16.8628C47.4215 12.9207 43.0634 10.009 38.296 10.8702C35.0022 11.4651 32.4566 13.6837 31.3731 16.4215C31.6075 16.8683 31.9385 17.3476 32.3135 17.8218Z" fill="#F2C79C"/>
<path d="M32.3135 17.8217C33.5926 19.439 35.3833 20.9963 35.5991 20.9963C35.7624 20.9963 36.6653 20.1292 37.6031 19.2287C38.6158 18.256 39.6693 17.2443 39.8752 17.2443C40.0734 17.2443 40.923 18.1823 41.7725 19.1203C42.6221 20.0583 43.4716 20.9963 43.6699 20.9963C43.9227 20.9963 46.2149 19.504 47.842 17.8854C46.052 15.0066 42.6523 13.1528 38.7261 13.862C36.1023 14.336 33.7542 15.8434 32.3135 17.8217Z" fill="#2BE1B7"/>
<path d="M16.6908 32.386C17.3433 30.272 19.5443 28.4302 22.0139 27.9736C23.9023 27.6245 25.4955 28.2572 26.6375 29.4142C26.8497 28.6386 27.0033 27.7123 26.9853 26.9347C25.7035 25.4593 23.7376 24.5835 21.5838 24.9817C17.9992 25.6444 15.8432 29.2112 16.5861 32.3193C16.6205 32.3418 16.6555 32.364 16.6908 32.386Z" fill="#2BE1B7"/>
<path d="M16.6908 32.386C18.0797 33.2533 19.9731 33.632 20.472 33.3443C20.8582 33.1216 21.037 31.9982 21.079 30.8412C21.111 29.9619 21.1396 29.1748 21.3108 29.0297C21.5 28.8693 22.4177 29.3911 23.3902 29.9441C24.456 30.55 25.6599 31.0785 25.9709 30.9028C26.1932 30.7772 26.4122 30.238 26.6375 29.4142C25.4955 28.2572 23.9022 27.6246 22.0138 27.9737C19.5443 28.4303 17.3433 30.272 16.6908 32.386Z" fill="#2BE1B7"/>
<path fill-rule="evenodd" clip-rule="evenodd" d="M52.0624 28.3883C52.1473 29.0043 53.9314 32.3083 54.4128 32.4203C54.6735 32.481 55.5653 31.8519 56.3823 31.2757C57.0739 30.7878 57.7119 30.3378 57.8677 30.3763C58.0098 30.4114 58.2806 30.8332 58.5972 31.3265C59.038 32.0131 59.5678 32.8382 59.9632 32.9523C60.4755 33.1 62.5157 32.0391 63.5141 31.3276C63.6683 27.8161 60.3697 24.2754 56.3986 24.9849C54.3249 25.3553 52.8169 26.6618 52.0472 28.3036C52.0531 28.3295 52.0581 28.3576 52.0624 28.3883Z" fill="#2BE1B7"/>
<path d="M64.3605 75.503C64.2047 75.583 63.7205 75.8076 63.2844 76.0019C61.6014 76.7501 61.3089 76.931 61.534 77.0833C62.7197 77.8863 63.0276 80.413 62.1883 82.4526C61.9795 82.9594 62.0109 82.956 62.5334 82.4156C64.2161 80.674 65.3027 77.2787 64.7538 75.4772C64.7068 75.3232 64.7091 75.3232 64.3605 75.503Z" fill="#F1F1F1"/>
<path d="M15.2025 75.4772C14.6536 77.2787 15.7403 80.674 17.423 82.4156C17.9455 82.956 17.9769 82.9594 17.7681 82.4526C16.9291 80.4142 17.2367 77.8863 18.4215 77.0838C18.6406 76.9354 18.2405 76.6862 16.7003 76.0131C16.3421 75.8563 15.8776 75.6435 15.6681 75.5399C15.2159 75.3159 15.2503 75.321 15.2025 75.4772Z" fill="#F1F1F1"/>
<path d="M60.6726 80.6085C60.6726 80.4226 60.5077 80.2725 60.3044 80.2725C60.1011 80.2725 59.9363 80.4226 59.9363 80.6085C59.9363 80.7938 60.1011 80.9445 60.3044 80.9445C60.5077 80.9445 60.6726 80.7938 60.6726 80.6085Z" fill="#F1F1F1"/>
<path opacity="0.2" fill-rule="evenodd" clip-rule="evenodd" d="M48.5098 22.4688C45.3587 25.9388 39.0957 27.8484 31.9393 23.4293C35.478 29.3135 45.6984 28.9934 48.5098 22.4688ZM26.9789 34.8619C23.6621 36.2337 19.1588 34.8293 16.9589 33.3337C17.1134 33.6598 17.305 33.9758 17.5355 34.2773C20.1061 37.6378 24.488 37.7422 26.9789 34.8619ZM62.9338 33.4684C61.0268 35.2415 57.1655 36.502 52.6555 34.5029C52.8742 34.7942 53.1242 35.0732 53.4064 35.3364C56.0398 37.7926 60.0967 37.316 62.4211 34.2773C62.6211 34.0157 62.7915 33.7452 62.9338 33.4684Z" fill="#22110C"/>
<path d="M30.9446 20.8628C31.6043 17.4876 34.8651 14.5586 38.7211 13.8621C43.8819 12.9299 48.1328 16.4257 49.0144 20.8569C50.1526 15.1596 44.5778 9.73456 38.291 10.8702C33.3199 11.7681 30.0529 16.3645 30.9446 20.8628Z" fill="#2430F0"/>
<path fill-rule="evenodd" clip-rule="evenodd" d="M32.3135 17.8218C33.7542 15.8434 36.1023 14.336 38.7261 13.8621C42.6523 13.1529 46.052 15.0066 47.842 17.8854C48.1832 17.5459 48.4952 17.2009 48.753 16.8629C47.4215 12.9207 43.0634 10.009 38.296 10.8702C35.0022 11.4651 32.4566 13.6836 31.3731 16.4215C31.6075 16.8682 31.9385 17.3476 32.3135 17.8218Z" fill="#2BE1B7"/>
<g opacity="0.2">
<g style="mix-blend-mode:hard-light">
<path fill-rule="evenodd" clip-rule="evenodd" d="M42.2491 43.9772C41.835 43.0208 40.8027 42.5086 39.362 42.7627C38.5112 42.9129 37.9339 43.3655 37.6641 44.0229C38.2318 43.5594 39.2364 43.4079 39.9859 43.3922C40.7102 43.4074 41.6727 43.5494 42.2491 43.9772ZM35.9417 44.5825C35.24 44.689 33.9584 45.0265 33.4015 45.8032C33.5872 45.1093 34.0534 44.5933 34.7648 44.4036C35.4769 44.2137 35.803 44.2355 35.9417 44.5825ZM32.1143 46.7375C32.1091 46.6736 32.1062 46.612 32.1058 46.5533C32.1054 46.4802 31.0712 46.5153 30.7463 46.5993C29.6342 46.8871 28.8853 47.7037 28.6103 48.677C29.3541 47.6372 30.739 46.7701 32.1143 46.7375ZM24.4243 52.4029C24.753 51.2974 25.9778 50.1442 26.9735 50.1442C27.1143 50.1442 27.237 50.1365 27.3436 50.1228C27.3342 50.063 27.3262 50.0024 27.3193 49.9412C27.3171 49.9207 27.315 49.9012 27.3129 49.8828C27.2953 49.7195 27.2861 49.6354 27.239 49.5976C27.1888 49.5574 27.0956 49.5698 26.9032 49.5952C26.8827 49.598 26.8611 49.6009 26.8384 49.6038C25.3356 49.799 24.4918 51.0357 24.4243 52.4029ZM39.3569 49.843C38.7793 49.3995 37.9246 49.2242 36.7245 50.2169C36.9271 49.7961 37.2804 49.4569 37.7822 49.2259C38.1768 49.0443 38.5965 49.0387 38.8236 49.212C39.0046 49.3501 39.1954 49.5802 39.3569 49.843ZM43.0713 50.0776C42.5531 49.1327 41.5615 48.6392 40.8969 49.422C40.8 49.5362 40.6933 49.6924 40.5951 49.8584C41.1446 49.426 41.9497 49.2321 43.0713 50.0776ZM35.4688 50.6382C35.4775 50.3757 35.4487 50.3709 35.2813 50.3431C35.1701 50.3247 35.0408 50.3025 34.9941 50.2939C34.9474 50.2853 34.7588 50.2997 34.5751 50.3258C33.7001 50.4504 33.1673 51.2113 33.03 52.1835C33.3764 51.0711 34.6822 50.5517 35.4688 50.6382ZM47.9159 52.7828C48.188 52.1052 49.838 52.7789 50.3929 53.8641C50.5472 54.1657 50.653 54.4663 50.7104 54.7656C50.2852 53.5839 48.9462 53.0423 47.9159 52.7828ZM42.5821 57.1977C42.583 57.184 42.5835 57.171 42.5835 57.1588C42.5835 56.9739 44.3338 56.9047 44.889 57.0677C45.1521 57.1449 45.3454 57.2918 45.4677 57.484C44.9365 57.0204 43.7808 57.1065 42.5821 57.1977ZM38.5593 55.2822C38.8813 54.8078 39.3663 54.5194 39.9782 54.5194C40.5785 54.5194 41.0567 54.797 41.3787 55.2555C40.9777 54.946 40.4283 54.7871 39.9859 54.746C39.5309 54.7882 38.9629 54.9551 38.5593 55.2822ZM34.4691 57.5162C34.59 57.3082 34.7898 57.1492 35.0673 57.0677C35.6226 56.9047 37.3729 56.9739 37.3729 57.1588C37.3729 57.1707 37.3733 57.1833 37.3742 57.1965C36.1541 57.1037 34.9811 57.0186 34.4691 57.5162ZM32.0524 52.7837C30.9989 53.0495 29.6245 53.6102 29.2335 54.848C29.2966 53.8034 29.8799 52.9257 30.9617 52.6377C31.2453 52.5622 31.7159 52.5401 31.9149 52.5929C31.99 52.6128 32.026 52.6565 32.0524 52.7837ZM46.5698 45.8027C46.3304 44.9462 45.6334 44.3818 44.567 44.3384L43.9599 44.3137L43.9494 44.5709C44.6289 44.6629 45.9907 44.9956 46.5698 45.8027ZM51.3288 48.632C51.1312 47.8832 50.6728 47.2376 49.9853 46.9049C49.3053 46.5758 47.8517 46.3364 47.8505 46.5533C47.8502 46.612 47.8474 46.6734 47.8421 46.7372C49.2026 46.7633 50.5748 47.6085 51.3288 48.632ZM55.5519 52.4179C55.2299 51.3079 53.9985 50.1442 52.9983 50.1442C52.8472 50.1442 52.717 50.1353 52.6051 50.1197C52.6071 50.1069 52.6091 50.0939 52.611 50.0809C52.6441 49.8578 52.6802 49.6478 52.6912 49.6142C52.7246 49.5116 53.4506 49.6367 53.826 49.8097C54.9174 50.3129 55.4944 51.3296 55.5519 52.4179ZM46.9088 52.087C46.8342 51.5091 46.6273 51.0138 46.2819 50.7132C45.9788 50.4494 45.2274 50.2163 44.9339 50.295C44.9028 50.3033 44.7863 50.3251 44.6751 50.3434C44.5074 50.371 44.4788 50.3757 44.4876 50.6399C45.2496 50.5477 46.5165 51.0341 46.9088 52.087Z" fill="white"/>
</g>
</g>
<g style="mix-blend-mode:hard-light">
<path fill-rule="evenodd" clip-rule="evenodd" d="M65.8866 66.9832C63.6549 66.8175 61.0523 67.5488 59.1717 68.7086C56.538 70.3326 52.4885 74.6446 51.6389 78.8166C51.4039 79.9702 51.2276 80.3476 51.0971 80.2647C52.3946 72.4936 56.9625 67.1064 62.8879 66.4826C64.2242 66.342 65.2273 66.5431 65.8866 66.9832Z" fill="white" fill-opacity="0.4"/>
</g>
<g style="mix-blend-mode:hard-light">
<path fill-rule="evenodd" clip-rule="evenodd" d="M13.9542 67.0364C16.2437 66.7861 18.9838 67.5292 20.9416 68.7366C23.5752 70.3606 27.6247 74.6726 28.4743 78.8446C28.6076 79.4987 28.7219 79.903 28.8197 80.1158C27.9968 75.4168 25.8774 71.2633 23.0503 69.0138C20.7912 67.2162 17.5438 66.1567 15.3494 66.5011C14.7695 66.5923 14.3053 66.7771 13.9542 67.0364Z" fill="white" fill-opacity="0.4"/>
</g>
<g style="mix-blend-mode:hard-light">
<path fill-rule="evenodd" clip-rule="evenodd" d="M34.3938 83.6655C36.2458 81.6518 38.6186 81.3085 39.8869 81.3085C41.2044 81.3085 43.8161 81.729 45.7017 83.9416C43.9015 80.3106 41.6434 78.5247 39.308 78.9386C37.5151 79.2561 35.8173 80.8997 34.3938 83.6655Z" fill="white" fill-opacity="0.4"/>
</g>
<path opacity="0.2" fill-rule="evenodd" clip-rule="evenodd" d="M64.8977 76.5619C64.0508 76.9231 63.1025 77.2899 62.0784 77.6573C61.9253 77.4204 61.7434 77.225 61.5341 77.0833C61.309 76.931 61.6016 76.7501 63.2846 76.0019C63.7207 75.8076 64.2049 75.5831 64.3607 75.503L64.3666 75.4996C64.5827 75.3882 64.6615 75.3473 64.7023 75.3714C64.7255 75.3848 64.7363 75.4195 64.7533 75.475L64.7538 75.4772C64.8507 75.7953 64.8966 76.1626 64.8977 76.5619ZM15.0602 76.4701C15.916 76.8531 16.8705 77.2412 17.897 77.6287C18.0459 77.4047 18.2212 77.2194 18.4216 77.0839C18.6408 76.9355 18.2406 76.6863 16.7005 76.0131C16.3423 75.8563 15.8778 75.6435 15.6683 75.5399C15.6391 75.5254 15.6121 75.5119 15.5868 75.4996C15.3588 75.3865 15.2831 75.3484 15.2478 75.3719C15.2302 75.3831 15.2226 75.4094 15.2111 75.4492C15.2086 75.4576 15.2059 75.4671 15.2027 75.4772C15.1134 75.7706 15.0673 76.1067 15.0602 76.4701Z" fill="#22110C"/>
<path opacity="0.2" fill-rule="evenodd" clip-rule="evenodd" d="M27.3065 90.4354C27.1258 92.3567 27.792 94.5054 28.0996 95.4972C28.1519 95.6658 28.1939 95.8013 28.2195 95.8965C28.4389 96.7102 26.054 97.997 17.306 94.0546C20.536 96.4856 24.4878 98.2082 28.1693 98.5302C31.2599 98.8001 31.9615 98.7542 31.6659 98.2989C31.1811 97.5535 29.5194 94.5301 28.5485 92.6272C28.2971 92.1344 27.9068 91.4417 27.6814 91.0872C27.5375 90.8615 27.4126 90.6442 27.3065 90.4354Z" fill="#22110C"/>
<path opacity="0.2" fill-rule="evenodd" clip-rule="evenodd" d="M62.704 94.0372C53.9247 98.0003 51.5325 96.7112 51.7523 95.8964C51.7779 95.8012 51.8198 95.6662 51.8722 95.4971C52.1811 94.5009 52.8519 92.337 52.6628 90.4095C52.554 90.6262 52.4248 90.8519 52.2751 91.0871C52.0496 91.4416 51.6594 92.1343 51.4079 92.6271C50.437 94.53 48.7753 97.5534 48.2905 98.2988C48.1826 98.4651 48.103 98.5676 48.1281 98.6275C48.1723 98.7333 48.5407 98.7059 49.6503 98.6544C53.28 98.4869 54.7899 98.1554 57.7341 96.8797C59.5878 96.0767 61.25 95.1169 62.704 94.0372Z" fill="#22110C"/>
<path opacity="0.2" fill-rule="evenodd" clip-rule="evenodd" d="M31.5812 94.5788C33.4951 97.6392 34.2707 98.7407 35.317 99.9184C39.1446 104.228 42.4161 103.521 46.4745 97.5082C47.2347 96.3826 47.362 96.1866 48.5347 94.3033C48.3194 94.6734 48.1008 95.0565 47.8799 95.449C46.6607 97.6168 46.5707 97.7725 45.8492 98.9552C42.1851 104.963 39.2314 105.669 35.7757 101.363C34.7738 100.115 34.0467 98.953 32.0764 95.449C31.9098 95.1528 31.7446 94.8627 31.5812 94.5788Z" fill="#22110C"/>
<path d="M39.9434 73.5525C39.2354 73.5525 38.3292 78.5365 37.9328 78.5365L37.1115 79.2925L39.9434 78.5365L43.2 79.4885C42.8507 79.171 42.1012 78.5365 41.8974 78.5365C41.6425 78.5365 40.6513 73.5525 39.9434 73.5525Z" fill="black" fill-opacity="0.2"/>
<path d="M35.2425 60.1682C34.846 60.1682 33.515 59.2442 33.515 57.8722C33.7038 57.5269 34.0814 56.9874 34.0814 57.5922C34.0814 58.3482 34.931 59.3282 35.1575 59.5522C35.3841 59.7762 35.6389 60.1682 35.2425 60.1682Z" fill="black" fill-opacity="0.2"/>
<path d="M27.6531 57.8723C26.0389 57.8723 23.9434 55.7723 22.8672 54.3443L23.5186 53.7843L24.9911 55.8843L28.3327 56.8643L28.9841 55.8003C29.1445 56.043 29.5221 56.6291 29.7487 57.0323C30.0319 57.5363 30.7681 57.9283 31.3628 58.7683C31.9575 59.6083 29.692 58.5723 29.4088 58.4323C29.1823 58.3203 28.6914 57.975 28.4743 57.8163C28.4743 57.835 28.3101 57.8723 27.6531 57.8723Z" fill="black" fill-opacity="0.2"/>
<path d="M32.7221 55.3243C32.0708 54.5123 32.2973 53.5603 32.1841 52.7483L34.0248 56.0523L33.8832 56.3043L33.8794 56.3024C33.6975 56.2077 33.2396 55.9695 32.7221 55.3243Z" fill="black" fill-opacity="0.2"/>
<path d="M38.5274 59.6643C37.9327 59.5243 37.3947 58.1523 37.3947 57.1163L37.9611 56.8643L38.3292 58.3203C38.4425 58.7684 39.1221 59.8043 38.5274 59.6643Z" fill="black" fill-opacity="0.2"/>
<path d="M44.6726 60.1682C45.069 60.1682 46.4 59.2442 46.4 57.8722C46.2112 57.5269 45.8336 56.9874 45.8336 57.5922C45.8336 58.3482 44.9841 59.3282 44.7575 59.5522C44.531 59.7762 44.2761 60.1682 44.6726 60.1682Z" fill="black" fill-opacity="0.2"/>
<path d="M52.2619 57.8723C53.8761 57.8723 55.9717 55.7723 57.0478 54.3443L56.3965 53.7843L54.9239 55.8843L51.5823 56.8643L50.931 55.8003C50.7705 56.043 50.3929 56.6291 50.1664 57.0323C49.8832 57.5363 49.1469 57.9283 48.5522 58.7683C47.9575 59.6083 50.223 58.5723 50.5062 58.4323C50.7327 58.3203 51.2236 57.975 51.4407 57.8163C51.4407 57.835 51.605 57.8723 52.2619 57.8723Z" fill="black" fill-opacity="0.2"/>
<path d="M47.1929 55.3243C47.8442 54.5123 47.6177 53.5603 47.731 52.7483L45.8903 56.0523L46.0319 56.3043L46.0356 56.3024C46.2175 56.2077 46.6754 55.9695 47.1929 55.3243Z" fill="black" fill-opacity="0.2"/>
<path d="M41.3593 59.6923C41.954 59.5523 42.5204 58.1523 42.5204 57.1163L41.954 56.8643L41.5858 58.3203C41.4726 58.7683 40.7646 59.8323 41.3593 59.6923Z" fill="black" fill-opacity="0.2"/>
<path opacity="0.2" d="M33.243 89.6805C33.0448 89.6805 33.6677 89.3725 33.4695 88.8405C33.9415 88.6445 34.6816 88.8461 35.2253 89.3165C35.905 89.9045 35.905 91.3605 35.8766 91.9765C35.8483 92.5925 33.4412 89.6805 33.243 89.6805Z" fill="#22110C"/>
<path opacity="0.2" d="M46.6747 89.6989C46.8729 89.6989 46.25 89.3909 46.4482 88.8589C45.9762 88.6629 45.2361 88.8645 44.6924 89.3349C44.0127 89.9229 44.0127 91.3789 44.0411 91.9949C44.0694 92.6109 46.4765 89.6989 46.6747 89.6989Z" fill="#22110C"/>
<path opacity="0.2" fill-rule="evenodd" clip-rule="evenodd" d="M20.9684 75.471C24.4154 77.51 27.7664 79.4924 27.7664 81.9525C27.7664 82.0314 27.7651 82.1098 27.7625 82.1866C26.6419 79.8665 24.2117 78.079 19.5203 75.6889C17.5736 74.6971 17.5515 74.6837 16.3339 73.7154C13.3475 71.341 12.3815 68.6088 13.6777 67.2676C12.8057 70.6427 16.9522 73.0955 20.9684 75.471Z" fill="#22110C"/>
<path opacity="0.2" fill-rule="evenodd" clip-rule="evenodd" d="M59.0316 75.471C55.5846 77.51 52.2336 79.4924 52.2336 81.9525C52.2336 81.9872 52.2339 82.0219 52.2344 82.0561C53.3822 79.7993 55.8083 78.0342 60.4124 75.6889C62.3592 74.6971 62.3813 74.6837 63.5988 73.7154C66.5844 71.3416 67.4583 68.7824 66.3589 67.421C67.068 70.7178 62.9866 73.1319 59.0316 75.471Z" fill="#22110C"/>
<g style="mix-blend-mode:multiply">
<path fill-rule="evenodd" clip-rule="evenodd" d="M12.4132 74.5661C12.379 77.3409 12.4857 89.3165 26.7187 89.3165C26.7769 89.3165 26.8348 89.3166 26.8922 89.316C26.7551 88.5791 26.9367 87.9652 27.435 87.4388C27.9398 86.9051 27.6227 84.3812 26.8593 82.8546C26.6572 82.4503 26.5708 82.265 26.4789 82.2622C26.3993 82.2599 26.3155 82.3955 26.1486 82.6453C22.0166 88.8294 13.5863 84.0967 13.7571 75.6894C13.7832 74.4065 13.7832 74.4065 13.4256 74.1226C13.165 73.9165 13.0861 73.8448 13.0279 73.8582C12.9928 73.8666 12.9652 73.9059 12.91 73.9653C12.7361 74.1529 12.5705 74.3533 12.4132 74.5661Z" fill="black" fill-opacity="0.2"/>
</g>
<path opacity="0.2" fill-rule="evenodd" clip-rule="evenodd" d="M67.6117 74.8041C67.6333 77.883 67.2453 89.3725 53.3042 89.3725C53.2117 89.3725 53.1202 89.3719 53.0297 89.3714C53.1867 88.6098 53.0086 87.9787 52.4978 87.4388C51.9931 86.9051 52.3101 84.3806 53.0736 82.8546C53.2757 82.4503 53.3621 82.265 53.4539 82.2622C53.5336 82.2599 53.6174 82.3954 53.7843 82.6452C57.9163 88.8287 66.3465 84.0967 66.176 75.6894C66.1573 74.7772 66.1516 74.5134 66.2745 74.337C66.3244 74.2648 66.3952 74.2077 66.4954 74.1265C66.6823 73.9747 66.7831 73.8795 66.8794 73.8834C67.0205 73.8896 67.1519 74.1097 67.5313 74.682C67.5585 74.7229 67.5851 74.7638 67.6117 74.8041Z" fill="#22110C"/>
<path opacity="0.2" fill-rule="evenodd" clip-rule="evenodd" d="M37.5019 44.5955C37.4165 45.2326 37.5533 45.9949 37.9326 46.8251C38.2165 47.4468 38.2165 47.4468 38.6522 47.4513C39.0436 47.4553 39.1326 47.4783 39.5271 47.6776C39.9662 47.8994 39.9662 47.8994 40.4054 47.6776C40.7999 47.4783 40.8889 47.4553 41.2803 47.4513C41.716 47.4468 41.716 47.4468 41.9997 46.8251C42.3787 45.9944 42.5015 45.2283 42.4075 44.5874C42.2194 45.6242 41.7861 46.9793 40.8143 47.0924C40.3936 47.1799 40.1009 47.1854 39.9998 47.1769L39.9931 47.1763H39.9148H39.9081C39.807 47.1848 39.5143 47.1799 39.0936 47.0924C38.1244 46.9796 37.6908 45.6312 37.5019 44.5955ZM43.1802 47.7094C43.666 46.9606 43.8689 46.2451 43.915 45.1187L43.9393 44.5271C44.1255 45.5415 44.0758 46.962 43.224 48.168C43.0032 47.9822 43.0138 47.966 43.1802 47.7094ZM46.6409 46.7554C46.6016 47.2731 46.4385 47.8456 46.1402 48.4435C46.1082 48.5076 46.0794 48.566 46.0532 48.619C45.8931 48.9435 45.8303 49.0707 45.7338 49.1047C45.6716 49.1267 45.5953 49.1098 45.4697 49.0821C45.438 49.075 45.403 49.0673 45.3643 49.0593C45.0618 48.997 44.8949 48.9904 44.6875 49.0327C44.6331 49.0437 44.5837 49.0541 44.5385 49.0635C44.5288 49.0655 44.5194 49.0674 44.5101 49.0694C44.5471 48.9584 44.8359 48.8679 45.1302 48.7756C45.4071 48.6889 45.6888 48.6006 45.7701 48.4923C46.1736 47.9546 46.4817 47.4124 46.6409 46.7554ZM47.8386 46.5535C47.8344 47.3252 47.3873 48.5895 46.8846 49.251C46.6698 49.5336 46.6553 49.5528 46.9282 49.8437C47.5068 49.0167 48.1094 47.3883 47.8815 46.5011C47.8538 46.5141 47.8387 46.5314 47.8386 46.5535ZM51.4125 49.174C51.3384 49.6477 51.0738 50.6448 50.6692 51.0684C50.1878 51.5724 49.9896 51.6284 49.5931 51.4604C49.3573 51.3605 49.0131 51.4091 48.7627 51.4751C49.2174 51.4921 49.6283 51.6125 50.006 51.8383L50.018 51.8454L50.0394 51.8583C50.1769 51.9406 50.253 51.9863 50.3225 51.9779C50.409 51.9675 50.4851 51.8735 50.6558 51.6628L50.6728 51.6419L50.6894 51.6215C51.2628 50.9149 51.4909 50.0137 51.4125 49.174ZM55.5219 52.205C55.4218 52.9868 55.1367 54.3769 54.0391 55.2963C53.0063 56.1616 52.2267 56.2203 52.0568 54.9883C52.0404 54.8694 52.0173 54.8063 51.99 54.7878C52.0411 55.2225 52.0198 55.6609 51.9167 56.0595C51.8544 56.3003 51.8034 56.5044 51.8034 56.5129C51.8034 56.6514 53.3436 56.0124 53.8833 55.65C55.1229 54.8177 55.6664 53.4447 55.5219 52.205ZM52.5943 50.1123C52.4602 50.9799 52.1441 51.5973 51.4886 52.2757C51.0671 52.712 51.0671 52.712 51.2445 52.9298C51.2635 52.9531 51.2822 52.9768 51.3006 53.0009C51.865 52.4338 52.4939 51.3507 52.5943 50.1123ZM46.9263 52.7383C46.8215 53.3308 46.6489 53.9792 46.3931 54.2883C45.8834 54.9044 45.2037 55.0723 44.6657 54.9883C44.3952 54.9462 43.9466 55.0638 43.5546 55.2011C44.35 55.1677 44.954 55.323 45.4785 55.6808C45.6069 55.7683 45.7107 55.8061 45.7333 55.7735C45.7543 55.7432 45.8781 55.581 46.0084 55.413C46.5844 54.6698 46.897 53.658 46.9263 52.7383ZM42.3547 54.9271C43.17 54.502 44.4769 53.3646 44.4609 51.5548C44.3028 52.8607 43.5252 54.018 42.3027 54.7165C42.288 54.7249 42.3143 54.8171 42.3547 54.9271ZM43.3879 51.6766C43.1362 52.4104 42.5764 53.5646 41.6922 53.2523C40.8993 52.9723 40.4179 52.9163 40.0214 52.9163C39.996 52.9163 39.9737 52.9187 39.954 52.9232C39.9343 52.9187 39.9119 52.9163 39.8865 52.9163C39.49 52.9163 39.0086 52.9723 38.2157 53.2523C37.4178 53.5341 36.8841 52.6215 36.6025 51.9015C36.7337 52.4432 37.0033 53.0315 37.4131 53.6436C37.6698 54.027 37.7647 54.1686 37.8395 54.159C37.8834 54.1533 37.9203 54.0957 37.979 54.0043C38.8227 52.6888 41.1098 52.6888 41.9535 54.0043C42.183 54.3621 43.107 52.998 43.3417 51.9548C43.3626 51.862 43.3778 51.7692 43.3879 51.6766ZM32.9828 52.7447C32.9926 53.6255 33.2955 54.602 33.9241 55.413C34.0544 55.581 34.1782 55.7432 34.1992 55.7735C34.2218 55.8061 34.3256 55.7683 34.454 55.6808C34.9724 55.3272 35.5685 55.1713 36.3503 55.2C35.9589 55.0632 35.512 54.9463 35.2423 54.9883C34.7042 55.0723 34.0246 54.9044 33.5148 54.2883C33.26 53.9803 33.0877 53.3355 32.9828 52.7447ZM35.4534 51.3684C35.341 53.3023 36.7328 54.5072 37.5738 54.9378C37.6165 54.8231 37.645 54.7252 37.6298 54.7165C36.3494 53.9849 35.557 52.7501 35.4534 51.3684ZM32.9902 49.8585C33.2777 49.5534 33.2663 49.5384 33.0479 49.251C32.5452 48.5895 32.0981 47.3252 32.0939 46.5535C32.0938 46.5417 32.0668 46.5327 32.0202 46.5263C31.8086 47.4242 32.4139 49.0441 32.9902 49.8585ZM28.4987 49.1942C28.4123 50.0076 28.6416 50.8803 29.2431 51.6215C29.2547 51.6357 29.2659 51.6495 29.2767 51.6628C29.4474 51.8735 29.5235 51.9675 29.61 51.9779C29.6795 51.9863 29.7556 51.9406 29.8931 51.8583C29.9038 51.8519 29.915 51.8451 29.9265 51.8383C30.2983 51.6161 30.7023 51.4959 31.1485 51.4759C30.8979 51.4095 30.5517 51.36 30.3149 51.4604C29.9184 51.6284 29.7202 51.5724 29.2388 51.0684C28.8398 50.6507 28.577 49.6754 28.4987 49.1942ZM33.3287 46.9804C33.3891 47.445 33.5416 47.9411 33.7923 48.4435C33.8243 48.5076 33.8531 48.5659 33.8793 48.619C34.0394 48.9434 34.1022 49.0707 34.1987 49.1047C34.2609 49.1267 34.3372 49.1098 34.4628 49.0821C34.4945 49.075 34.5295 49.0673 34.5682 49.0593C34.8707 48.997 35.0376 48.9904 35.245 49.0327C35.2993 49.0437 35.3488 49.0541 35.394 49.0635C35.3946 49.0636 35.3952 49.0637 35.3958 49.0639C35.3512 48.9553 35.0671 48.8663 34.7777 48.7756C34.5009 48.6889 34.2192 48.6006 34.1379 48.4923C33.7814 48.0172 33.4993 47.5386 33.3287 46.9804ZM35.9495 44.6382C35.9891 44.7634 36.0095 44.9244 36.0177 45.1255C36.0635 46.2446 36.2676 46.9622 36.7523 47.7094C36.9225 47.9718 36.9296 47.9828 36.6931 48.1809C35.8633 47.0155 35.7865 45.6472 35.9495 44.6382ZM27.9431 54.783C27.9049 54.7738 27.8723 54.8344 27.8511 54.9883C27.6812 56.2203 26.9016 56.1616 25.8688 55.2963C24.8557 54.4476 24.5348 53.1978 24.4127 52.3957C24.3519 53.5782 24.8722 54.8597 26.0492 55.65C26.5889 56.0124 28.1291 56.6514 28.1291 56.5129C28.1291 56.5044 28.0781 56.3003 28.0158 56.0595C27.9123 55.6595 27.8913 55.2193 27.9431 54.783ZM28.6213 53.0148C28.6429 52.9862 28.6649 52.958 28.6873 52.9305C28.8643 52.7134 28.8643 52.7134 28.4201 52.2495C27.7619 51.562 27.4055 50.8228 27.3074 49.9414C27.3052 49.9222 27.3033 49.904 27.3014 49.8866C27.3382 51.2285 28.0194 52.4179 28.6213 53.0148Z" fill="#22110C"/>
<path d="M60.8991 79.4885C60.8991 78.8081 61.4697 78.2565 62.1734 78.2565C62.8772 78.2565 63.4478 78.8081 63.4478 79.4885C63.4478 80.1689 62.8772 80.7205 62.1734 80.7205C61.4697 80.7205 60.8991 80.1689 60.8991 79.4885Z" fill="#F1F1F1"/>
<path d="M16.4389 79.4885C16.4389 78.8081 17.0095 78.2565 17.7132 78.2565C18.417 78.2565 18.9876 78.8081 18.9876 79.4885C18.9876 80.1689 18.417 80.7205 17.7132 80.7205C17.0095 80.7205 16.4389 80.1689 16.4389 79.4885Z" fill="#F1F1F1"/>
<path d="M19.8372 80.6085C19.8372 80.4226 19.6724 80.2725 19.469 80.2725C19.2657 80.2725 19.1009 80.4226 19.1009 80.6085C19.1009 80.7938 19.2657 80.9445 19.469 80.9445C19.6724 80.9445 19.8372 80.7938 19.8372 80.6085Z" fill="#F1F1F1"/>
</g>
<path d="M374.161 80.4931L375.564 87.2722C374.59 87.9345 373.187 88.5384 371.356 89.0838C369.564 89.5903 367.772 89.8435 365.979 89.8435C362.512 89.8435 359.629 88.7526 357.33 86.5709C355.071 84.3891 353.941 81.1165 353.941 76.753V64.8897H348.214V57.0003H353.941V50.0459L362.298 48.2343V57.0003H374.219V64.8897H362.298V76.2855C362.298 80.1425 364.012 82.071 367.44 82.071C368.96 82.071 371.2 81.545 374.161 80.4931Z" fill="#22110C"/>
<path d="M330.517 89.8434C326.193 89.8434 322.589 88.85 319.706 86.863C316.823 84.8371 315.089 82.0709 314.505 78.5645H322.978C323.68 81.4476 326.271 82.8891 330.751 82.8891C334.374 82.8891 336.186 82.0125 336.186 80.2593C336.186 80.0255 336.147 79.8114 336.069 79.6166C336.03 79.4218 335.933 79.2463 335.777 79.0905C335.66 78.9347 335.524 78.7983 335.368 78.6814C335.212 78.5256 334.978 78.3893 334.666 78.2724C334.394 78.1556 334.14 78.0582 333.907 77.9802C333.673 77.9023 333.322 77.8048 332.855 77.6879C332.426 77.5711 332.037 77.4737 331.686 77.3957C331.374 77.3178 330.926 77.2204 330.342 77.1035C329.757 76.9867 329.251 76.8698 328.822 76.7529C324.03 75.6231 320.68 74.3958 318.771 73.0712C316.901 71.7076 315.966 69.6818 315.966 66.9935C315.966 63.643 317.232 61.0326 319.764 59.1625C322.336 57.2535 325.764 56.299 330.05 56.299C334.335 56.299 337.666 57.234 340.043 59.1041C342.419 60.9352 343.9 63.4286 344.484 66.5844H336.011C335.309 64.4026 333.225 63.3117 329.757 63.3117C326.173 63.3117 324.381 64.2078 324.381 66C324.381 66.7012 324.751 67.2078 325.491 67.5195C326.232 67.8312 327.907 68.2791 330.517 68.8635C333.128 69.4479 335.192 69.9935 336.712 70.4999C338.231 70.9675 339.673 71.5908 341.036 72.37C342.4 73.1492 343.374 74.0842 343.958 75.1751C344.543 76.266 344.835 77.5906 344.835 79.149C344.835 82.6165 343.491 85.2658 340.803 87.0969C338.114 88.928 334.686 89.8434 330.517 89.8434Z" fill="#22110C"/>
<path d="M293.565 56.299C298.825 56.299 302.974 58.1106 306.013 61.7338C309.091 65.3571 310.415 69.857 309.987 75.2335H285.325C285.598 77.7269 286.494 79.636 288.013 80.9607C289.533 82.2853 291.422 82.9476 293.682 82.9476C295.318 82.9476 296.779 82.5969 298.065 81.8956C299.351 81.1554 300.266 80.1619 300.812 78.9152H309.461C308.331 82.5385 306.344 85.2658 303.5 87.0969C300.656 88.928 297.403 89.8434 293.74 89.8434C288.754 89.8434 284.682 88.2657 281.527 85.1099C278.371 81.9542 276.793 77.9608 276.793 73.1297C276.793 68.2987 278.371 64.2857 281.527 61.091C284.682 57.8963 288.695 56.299 293.565 56.299ZM293.507 63.1949C291.52 63.1949 289.864 63.7403 288.539 64.8312C287.215 65.8831 286.28 67.3052 285.734 69.0974H301.104C300.636 67.3052 299.74 65.8831 298.416 64.8312C297.091 63.7403 295.455 63.1949 293.507 63.1949Z" fill="#22110C"/>
<path d="M268.093 50.7471C264.314 50.7471 262.425 52.7925 262.425 56.8833V57.0002H273.119V64.8896H262.425V89.1421H254.068V64.8896H248.341V57.0002H254.068V56.4742C254.068 52.1886 255.334 48.9549 257.866 46.7732C260.399 44.5525 263.496 43.4421 267.158 43.4421C270.08 43.4421 272.613 43.9291 274.755 44.9031L273.236 51.6821L272.126 51.3899C270.645 50.9614 269.301 50.7471 268.093 50.7471Z" fill="#22110C"/>
<path d="M239.528 42.1565C241.048 42.1565 242.294 42.624 243.268 43.5591C244.242 44.4551 244.729 45.6239 244.729 47.0654C244.729 48.507 244.242 49.6952 243.268 50.6303C242.294 51.5653 241.048 52.0328 239.528 52.0328C238.048 52.0328 236.801 51.5653 235.788 50.6303C234.814 49.6952 234.327 48.507 234.327 47.0654C234.327 45.6629 234.814 44.4941 235.788 43.5591C236.801 42.624 238.048 42.1565 239.528 42.1565ZM235.32 89.1422V57.0002H243.677V89.1422H235.32Z" fill="#22110C"/>
<path d="M217.315 56.299C220.938 56.299 223.782 57.4288 225.847 59.6885C227.912 61.9481 228.944 65.0454 228.944 68.9804V89.1422H220.587V70.792C220.587 68.6103 220.12 66.974 219.185 65.8831C218.25 64.7922 216.711 64.2468 214.568 64.2468C209.737 64.2468 207.321 66.9155 207.321 72.253V89.1422H198.964V57.0002H207.321V61.3833C209.737 57.9938 213.068 56.299 217.315 56.299Z" fill="#22110C"/>
<path d="M183.948 57.0002H192.305L192.247 89.1422H183.89V84.8176C181.435 88.1682 178.085 89.8434 173.838 89.8434C169.591 89.8434 166.085 88.285 163.319 85.1682C160.553 82.0125 159.17 77.9801 159.17 73.0712C159.17 68.1622 160.553 64.1495 163.319 61.0326C166.124 57.8768 169.611 56.299 173.78 56.299C178.065 56.299 181.455 58.0327 183.948 61.5001V57.0002ZM175.708 81.8956C178.085 81.8956 180.052 81.0776 181.611 79.4412C183.169 77.8049 183.948 75.6815 183.948 73.0712C183.948 70.4609 183.169 68.3376 181.611 66.7012C180.052 65.0649 178.085 64.2468 175.708 64.2468C173.332 64.2468 171.384 65.0649 169.864 66.7012C168.345 68.3376 167.585 70.4609 167.585 73.0712C167.585 75.6815 168.345 77.8049 169.864 79.4412C171.423 81.0776 173.371 81.8956 175.708 81.8956Z" fill="#22110C"/>
<path d="M142.453 56.299C145.882 56.299 148.59 57.4094 150.577 59.6301C152.564 61.8508 153.557 64.9091 153.557 68.8051V89.1422H145.2V70.6167C145.2 68.5129 144.752 66.935 143.856 65.8831C142.999 64.7922 141.596 64.2468 139.648 64.2468C137.467 64.2468 135.811 64.9481 134.681 66.3507C133.551 67.7143 132.986 69.6817 132.986 72.253V89.1422H124.629V70.6167C124.629 68.5129 124.181 66.935 123.285 65.8831C122.428 64.7922 121.025 64.2468 119.077 64.2468C116.896 64.2468 115.22 64.9481 114.052 66.3507C112.922 67.7143 112.357 69.6817 112.357 72.253L112.415 89.1422H104V57.0002H112.415V61.2663C114.753 57.9547 117.928 56.299 121.941 56.299C126.616 56.299 129.869 58.325 131.701 62.3768C134.194 58.325 137.778 56.299 142.453 56.299Z" fill="#22110C"/>
</g>
<defs>
<clipPath id="clip0_3806_328">
<rect width="368" height="98" fill="white" transform="translate(8 8)"/>
</clipPath>
</defs>
</svg>
