<svg
  width="126.4923"
  height="37.81501"
  viewBox="0 0 3162.3083859332733 945.3751601727492"
  xmlns="http://www.w3.org/2000/svg"
>
  <g transform="scale(8.115419296663662) translate(10, 10)">
    <g
      transform="matrix(1.0964912280701753,0,0,1.0964912280701753,-10.964912280701753,-4.385964912280701)"
    >
      <g>
        <path
          fill="#4ecca3"
          d="M84,88H50V60.828l5.414-5.414c0.781-0.781,0.781-2.047,0-2.828c-0.78-0.781-2.048-0.781-2.828,0L50,55.172V42.828    l11.414-11.414c0.781-0.781,0.781-2.047,0-2.828c-0.78-0.781-2.048-0.781-2.828,0L50,37.172V24c0-1.104-0.896-2-2-2s-2,0.896-2,2    v25.172l-8.586-8.586c-0.78-0.781-2.048-0.781-2.828,0c-0.781,0.781-0.781,2.047,0,2.828L46,54.828V88H12c-1.104,0-2,0.896-2,2    s0.896,2,2,2h72c1.104,0,2-0.896,2-2S85.104,88,84,88z"
        ></path>
        <path
          fill="#4ecca3"
          d="M30,62h6c1.104,0,2-0.896,2-2s-0.896-2-2-2h-6c-8.822,0-16-7.178-16-16s7.178-16,16-16c1.104,0,2-0.896,2-2    c0-8.822,7.178-16,16-16s16,7.178,16,16c0,1.104,0.896,2,2,2c8.822,0,16,7.178,16,16s-7.178,16-16,16h-6c-1.104,0-2,0.896-2,2    s0.896,2,2,2h6c11.028,0,20-8.972,20-20c0-10.384-7.955-18.945-18.091-19.91C66.945,11.955,58.384,4,48,4    s-18.945,7.955-19.91,18.09C17.955,23.055,10,31.616,10,42C10,53.028,18.972,62,30,62z"
        ></path>
      </g>
    </g>
    <g
      transform="matrix(1.7026221078021853,0,0,1.7026221078021853,106.24004906963357,-3.5221434434314958)"
    >
      <path
        fill="#4ecca3"
        d="M12.949 40.39063 c-5.9375 0 -10.449 -2.8516 -11.328 -7.8906 l5.2148 -1.2109 c0.46875 3.1836 2.9883 4.9023 6.3086 4.9023 c2.6172 0 4.8828 -1.1133 4.8633 -3.8672 c-0.039063 -2.9102 -3.3398 -3.7891 -6.9141 -4.8242 c-4.1992 -1.25 -8.5547 -2.6953 -8.5547 -7.8516 c0 -5.1953 4.2578 -8.0078 9.6875 -8.0078 c4.9023 0 9.6484 2.0313 10.742 7.168 l-4.8828 1.2109 c-0.58594 -2.8906 -2.7539 -4.1992 -5.5859 -4.1992 c-2.5195 0 -4.8438 1.0742 -4.8438 3.7305 c0 2.4414 2.9102 3.2227 6.2305 4.1602 c4.2969 1.25 9.3555 2.793 9.3555 8.3789 c0 5.8398 -4.9023 8.3008 -10.293 8.3008 z M36.95325 40.37109 c-6.0352 0 -10.371 -4.1211 -10.371 -10.293 c0 -6.1523 4.3359 -10.254 10.371 -10.254 c4.8047 0 8.457 2.5391 9.4922 7.0313 l-4.5117 0.54688 c-0.72266 -2.4609 -2.5781 -3.6914 -5.0195 -3.6914 c-3.2031 0 -5.4688 2.5391 -5.4688 6.3672 c0 3.8477 2.2656 6.3672 5.4688 6.3672 c2.4414 0 4.2969 -1.2305 5.0195 -3.6914 l4.5117 0.54688 c-1.0352 4.5117 -4.7852 7.0703 -9.4922 7.0703 z M53.2812125 16.699 c-1.6016 0 -2.9297 -1.3086 -2.9297 -2.9102 c0 -1.6211 1.3281 -2.9102 2.9297 -2.9102 c1.5625 0 2.9102 1.2891 2.9102 2.9102 c0 1.6016 -1.3477 2.9102 -2.9102 2.9102 z M50.7812125 40 l0 -19.785 l4.9023 0 l0 19.785 l-4.9023 0 z M73.08553125 19.824 c5.1758 0 9.4336 3.8672 9.4336 10.313 s-4.2578 10.313 -9.4336 10.313 c-2.7344 0 -5.1563 -1.1914 -6.3477 -3.2227 l0 12.52 l-4.8828 0 l0 -29.531 l4.6484 0 l0.13672 3.0078 c1.1523 -2.1484 3.6133 -3.3984 6.4453 -3.3984 z M72.01153125 36.3672 c3.1055 0 5.625 -2.3438 5.625 -6.2305 s-2.5195 -6.2109 -5.625 -6.2109 c-3.1836 0 -5.6641 2.5391 -5.6641 6.2109 c0 3.6914 2.4805 6.2305 5.6641 6.2305 z M91.81636875 23.457 c0.97656 -1.875 3.5547 -3.457 6.4063 -3.4766 l0 4.4141 c-4.082 0 -6.1914 1.3867 -6.1914 5.6641 l0 9.9414 l-4.9023 0 l0 -19.785 l4.6875 0 l0 3.2422 z M119.94134375 29.785 l-0.078125 1.2109 l-14.922 0 c0.19531 3.6914 2.6172 5.4883 5.5078 5.4883 c2.1289 0 3.8281 -1.0547 4.6875 -2.9492 l4.4531 0.72266 c-1.3477 3.8672 -4.8242 6.1328 -9.1016 6.1328 c-6.1914 0 -10.332 -3.7891 -10.332 -10.273 c0 -6.5039 4.2578 -10.313 10.176 -10.313 c5.5078 0 9.5703 3.1641 9.6094 9.9805 z M110.35134375 23.32 c-2.7344 0 -4.6875 1.3867 -5.2539 4.4141 l10 0 c-0.27344 -2.9297 -2.168 -4.4141 -4.7461 -4.4141 z M131.28904375 40.39063 c-4.3555 0 -7.6953 -1.8164 -8.3789 -5.5078 l4.1211 -1.1719 c0.54688 2.2266 2.1484 3.2031 4.2578 3.2031 c1.543 0 3.2031 -0.52734 3.1836 -2.3242 c-0.039063 -2.1875 -2.9883 -2.4219 -6.1523 -3.4961 c-2.4805 -0.82031 -4.9023 -2.0313 -4.9023 -5.4297 c0 -4.0039 3.3203 -5.8203 7.5 -5.8203 c3.7695 0 6.9336 1.4844 7.6367 5.2148 l-3.8086 0.87891 c-0.54688 -2.0117 -2.0313 -2.7734 -3.8086 -2.7734 c-1.5625 0 -3.0469 0.60547 -3.0469 2.0898 c0 1.7773 2.3047 2.1484 4.8242 2.8125 c3.0664 0.82031 6.4453 2.0508 6.4453 6.25 c0 4.4336 -3.7305 6.0742 -7.8711 6.0742 z M150.371075 40.39063 c-4.3555 0 -7.6953 -1.8164 -8.3789 -5.5078 l4.1211 -1.1719 c0.54688 2.2266 2.1484 3.2031 4.2578 3.2031 c1.543 0 3.2031 -0.52734 3.1836 -2.3242 c-0.039063 -2.1875 -2.9883 -2.4219 -6.1523 -3.4961 c-2.4805 -0.82031 -4.9023 -2.0313 -4.9023 -5.4297 c0 -4.0039 3.3203 -5.8203 7.5 -5.8203 c3.7695 0 6.9336 1.4844 7.6367 5.2148 l-3.8086 0.87891 c-0.54688 -2.0117 -2.0313 -2.7734 -3.8086 -2.7734 c-1.5625 0 -3.0469 0.60547 -3.0469 2.0898 c0 1.7773 2.3047 2.1484 4.8242 2.8125 c3.0664 0.82031 6.4453 2.0508 6.4453 6.25 c0 4.4336 -3.7305 6.0742 -7.8711 6.0742 z"
      ></path>
    </g>
  </g>
</svg>
